<?xml version="1.0" encoding="UTF-8"?>
<svg version="1.1" xmlns="http://www.w3.org/2000/svg" width="222" height="99">
<path d="M0 0 C73.26 0 146.52 0 222 0 C222 32.67 222 65.34 222 99 C148.74 99 75.48 99 0 99 C0 66.33 0 33.66 0 0 Z " fill="#FDFEFE" transform="translate(0,0)"/>
<path d="M0 0 C4.23709532 2.36299547 7.10871546 4.85601222 9.5625 9.0625 C11.1790917 15.5288668 10.87506751 21.1483167 7.59375 27.01953125 C4.64950564 30.94804335 0.85356375 33.27797875 -3.75 34.8125 C-9.36745875 35.18085795 -12.95883608 35.07456905 -17.75 31.8125 C-22.44162308 27.15965067 -25.8113283 23.44132739 -26.125 16.625 C-26.06428869 11.29975066 -24.10269953 7.85035611 -20.75 3.8125 C-14.51651496 -1.97573611 -7.93873718 -2.51393344 0 0 Z " fill="#089D5E" transform="translate(42.75,30.1875)"/>
<path d="M0 0 C2.31 0 4.62 0 7 0 C8.9375 2 8.9375 2 10 4 C13.27773504 3.24849977 13.27773504 3.24849977 15 0 C17.64 0 20.28 0 23 0 C23 5.61 23 11.22 23 17 C20.36 17 17.72 17 15 17 C14.67 14.69 14.34 12.38 14 10 C13.67 10.66 13.34 11.32 13 12 C10.83125748 11.49396008 9.00032373 11.00016187 7 10 C7 12.31 7 14.62 7 17 C4.69 17 2.38 17 0 17 C0 11.39 0 5.78 0 0 Z " fill="#089E5F" transform="translate(138,38)"/>
<path d="M0 0 C2.64 0 5.28 0 8 0 C8.33 1.32 8.66 2.64 9 4 C9.309375 3.34 9.61875 2.68 9.9375 2 C12.45557014 -0.44176498 13.28107372 -0.27142406 16.6875 -0.25 C18.1259798 -0.18576167 19.56416999 -0.10836453 21 0 C19.79618552 2.49361571 18.54571278 4.68143083 17 7 C17.3778829 10.58988752 18.58424553 13.69657291 20 17 C12.49230769 17.36923077 12.49230769 17.36923077 10 15.5 C9.67 15.005 9.34 14.51 9 14 C8.67 14.99 8.34 15.98 8 17 C5.36 17 2.72 17 0 17 C0 11.39 0 5.78 0 0 Z " fill="#0C9F61" transform="translate(62,38)"/>
<path d="M0 0 C2.31 0 4.62 0 7 0 C8.9375 2.5 8.9375 2.5 10 5 C10.33 3.35 10.66 1.7 11 0 C13.31 0 15.62 0 18 0 C18 5.61 18 11.22 18 17 C15.69 17 13.38 17 11 17 C9.0625 15 9.0625 15 8 13 C7.67 14.32 7.34 15.64 7 17 C4.69 17 2.38 17 0 17 C0 11.39 0 5.78 0 0 Z " fill="#069D5D" transform="translate(185,38)"/>
<path d="M0 0 C-0.10699219 0.61488281 -0.21398437 1.22976562 -0.32421875 1.86328125 C-0.44410156 2.67152344 -0.56398438 3.47976562 -0.6875 4.3125 C-0.87892578 5.51326172 -0.87892578 5.51326172 -1.07421875 6.73828125 C-1.21393964 9.0576994 -1.21393964 9.0576994 0.29296875 10.73046875 C2.0865457 12.20240015 2.0865457 12.20240015 5 13 C5 13.66 5 14.32 5 15 C1.60379269 17.08997373 -1.05163095 17.2632246 -5 17 C-5.33 16.67 -5.66 16.34 -6 16 C-6.20625 16.639375 -6.4125 17.27875 -6.625 17.9375 C-8 20 -8 20 -11.0859375 20.62890625 C-12.04757813 20.75136719 -13.00921875 20.87382813 -14 21 C-14.67413211 19.08594633 -15.3390332 17.16863974 -16 15.25 C-16.37125 14.18265625 -16.7425 13.1153125 -17.125 12.015625 C-18 9 -18 9 -18 5 C-14.535 4.505 -14.535 4.505 -11 4 C-11 4.66 -11 5.32 -11 6 C-10.34 6 -9.68 6 -9 6 C-8.896875 5.38125 -8.79375 4.7625 -8.6875 4.125 C-7.25616829 -0.29911619 -4.03097181 -0.21789037 0 0 Z " fill="#F0FAF6" transform="translate(43,36)"/>
<path d="M0 0 C3.3 0 6.6 0 10 0 C10.81832722 1.89332534 11.62942268 3.78977733 12.4375 5.6875 C13.11619141 7.27111328 13.11619141 7.27111328 13.80859375 8.88671875 C15 12 15 12 16 17 C9.07 17 2.14 17 -5 17 C-4.04852474 10.33967317 -2.57782793 6.07036899 0 0 Z " fill="#0FA164" transform="translate(167,38)"/>
<path d="M0 0 C2.93602134 1.99899325 4.62130844 3.44520943 5.48046875 6.97265625 C5.73368112 10.63397028 5.28906589 12.63866763 3 15.5 C-1.14685318 17.57342659 -3.38117047 17.58651804 -8 17 C-10.5 15.5 -10.5 15.5 -12 13 C-12.7099846 8.0301078 -12.79117716 6.15080314 -9.9375 2 C-6.22192774 -0.52975133 -4.4117517 -0.7878128 0 0 Z " fill="#099D5E" transform="translate(94,38)"/>
<path d="M0 0 C3.74785043 2.08213913 4.79482295 3.2947039 6 7.4375 C6 11.37108373 5.41868244 12.95425175 3 16 C-0.10048928 17.55024464 -2.57894218 17.28992015 -6 17 C-8.9375 15.5625 -8.9375 15.5625 -11 13 C-11.70993955 9.85433287 -11.71555259 7.14496906 -11 4 C-7.77123438 0.10648852 -4.96361941 -0.8272699 0 0 Z " fill="#059C5C" transform="translate(112,38)"/>
<path d="M0 0 C3.6875 0.3125 3.6875 0.3125 6.125 2.3125 C6.8984375 3.3025 6.8984375 3.3025 7.6875 4.3125 C8.3475 2.9925 9.0075 1.6725 9.6875 0.3125 C11.6675 0.3125 13.6475 0.3125 15.6875 0.3125 C16.0175 0.9725 16.3475 1.6325 16.6875 2.3125 C15.7265625 4.01171875 15.7265625 4.01171875 14.3125 6 C11.74959332 9.88340707 10.97576203 12.70030755 10.6875 17.3125 C8.0475 17.3125 5.4075 17.3125 2.6875 17.3125 C2.3471875 15.58 2.3471875 15.58 2 13.8125 C0.82892918 9.02564117 -1.51857775 5.32209834 -4.3125 1.3125 C-3.3125 0.3125 -3.3125 0.3125 0 0 Z " fill="#079E5F" transform="translate(120.3125,37.6875)"/>
<path d="M0 0 C0.70045456 1.91197039 1.384919 3.82980435 2.0625 5.75 C2.44535156 6.81734375 2.82820313 7.8846875 3.22265625 8.984375 C3.98010011 11.92280042 4.07151741 13.22348948 3 16 C1.02 16.33 -0.96 16.66 -3 17 C-3.67413211 15.08594633 -4.3390332 13.16863974 -5 11.25 C-5.37125 10.18265625 -5.7425 9.1153125 -6.125 8.015625 C-7 5 -7 5 -7 1 C-4 0 -4 0 0 0 Z " fill="#F3FBF8" transform="translate(32,40)"/>
<path d="M0 0 C0.66 0.33 1.32 0.66 2 1 C1.67 1.66 1.34 2.32 1 3 C0.84101146 4.91500303 0.84101146 4.91500303 0.875 7 C0.87242188 7.70125 0.86984375 8.4025 0.8671875 9.125 C0.88622764 11.09153775 0.88622764 11.09153775 2 13 C1.34 13.66 0.68 14.32 0 15 C-4.01796407 8.79041916 -4.01796407 8.79041916 -3.9375 5.25 C-2.95221948 2.88532674 -1.96267672 1.62134164 0 0 Z " fill="#D4F1E7" transform="translate(82,40)"/>
<path d="M0 0 C0.33 0 0.66 0 1 0 C1.16852247 1.60397277 1.33474886 3.2081869 1.5 4.8125 C1.5928125 5.70582031 1.685625 6.59914063 1.78125 7.51953125 C2 10 2 10 2 13 C-0.95183101 10.04816899 -1.08663988 7.04488053 -2 3 C-1.34 3 -0.68 3 0 3 C0 2.01 0 1.02 0 0 Z " fill="#9ADDC6" transform="translate(34,39)"/>
<path d="M0 0 C1.98 0.495 1.98 0.495 4 1 C3.67 2.32 3.34 3.64 3 5 C1.68 4.67 0.36 4.34 -1 4 C-0.67 2.68 -0.34 1.36 0 0 Z " fill="#D1F0E6" transform="translate(89,44)"/>
<path d="M0 0 C1.32 0.66 2.64 1.32 4 2 C3.67 2.99 3.34 3.98 3 5 C1.68 5 0.36 5 -1 5 C-0.67 3.35 -0.34 1.7 0 0 Z " fill="#D5F1E7" transform="translate(108,44)"/>
</svg>
