<?xml version="1.0" encoding="UTF-8"?>
<svg xmlns="http://www.w3.org/2000/svg" xmlns:xlink="http://www.w3.org/1999/xlink" version="1.1" id="Layer_1" x="0px" y="0px" width="1870.87px" height="864.567px" viewBox="0 0 1870.87 864.567" xml:space="preserve">
<g>
	<defs>
		<rect id="SVGID_1_" width="1870.866" height="864.567"></rect>
	</defs>
	<clipPath id="SVGID_2_">
		<use xlink:href="#SVGID_1_" overflow="visible"></use>
	</clipPath>
	<path clip-path="url(#SVGID_2_)" fill="#193B66" d="M767.646,535.817l-138.164-300.85v238.887c0,21.977,2.373,35.688,7.119,41.133   c6.501,7.383,16.784,11.074,30.85,11.074h12.656v9.756H555.655v-9.756h12.656c15.116,0,25.84-4.569,32.168-13.711   c3.864-5.624,5.801-18.457,5.801-38.496V240.241c0-15.82-1.759-27.245-5.274-34.278c-2.463-5.096-6.987-9.36-13.579-12.788   c-6.592-3.427-17.183-5.141-31.772-5.141v-9.756h101.25l129.726,279.755l127.618-279.755h101.25v9.756h-12.394   c-15.293,0-26.104,4.573-32.432,13.711c-3.868,5.628-5.8,18.457-5.8,38.496v233.613c0,21.977,2.46,35.688,7.382,41.133   c6.501,7.383,16.785,11.074,30.85,11.074h12.394v9.756H863.624v-9.756h12.656c15.293,0,26.013-4.569,32.168-13.711   c3.864-5.624,5.801-18.457,5.801-38.496V234.967l-137.901,300.85H767.646z"></path>
	<path clip-path="url(#SVGID_2_)" fill="#193B66" d="M1343.304,170.104l8.174,121.553h-8.174   c-10.9-36.387-26.458-62.577-46.67-78.574c-20.216-15.994-44.474-23.995-72.772-23.995c-23.731,0-45.18,6.024-64.336,18.062   c-19.161,12.042-34.237,31.245-45.221,57.612c-10.986,26.367-16.479,59.154-16.479,98.35c0,32.345,5.183,60.381,15.557,84.111   c10.37,23.731,25.972,41.924,46.802,54.58s44.602,18.985,71.323,18.985c23.203,0,43.679-4.965,61.437-14.898   c17.753-9.929,37.264-29.663,58.534-59.193l8.175,5.272c-17.931,31.818-38.852,55.108-62.754,69.873   c-23.907,14.766-52.299,22.149-85.166,22.149c-59.24,0-105.118-21.973-137.638-65.918c-24.258-32.696-36.387-71.192-36.387-115.489   c0-35.682,7.997-68.463,23.994-98.349c15.994-29.881,38.01-53.039,66.05-69.478c28.036-16.434,58.667-24.653,91.89-24.653   c25.841,0,51.325,6.328,76.466,18.984c7.383,3.869,12.655,5.801,15.819,5.801c4.746,0,8.874-1.668,12.394-5.01   c4.568-4.746,7.818-11.337,9.755-19.775H1343.304z"></path>
	<path clip-path="url(#SVGID_2_)" fill="#193B66" d="M1619.165,353.356c24.785,5.273,43.329,13.711,55.635,25.312   c17.048,16.175,25.576,35.951,25.576,59.327c0,17.756-5.628,34.763-16.875,51.02c-11.251,16.261-26.676,28.126-46.273,35.596   c-19.604,7.474-49.53,11.206-89.781,11.206h-168.75v-9.756h13.448c14.938,0,25.662-4.746,32.168-14.237   c4.042-6.152,6.063-19.248,6.063-39.287V241.559c0-22.148-2.55-36.123-7.646-41.924c-6.856-7.733-17.053-11.601-30.586-11.601   h-13.448v-9.756h154.512c28.827,0,51.943,2.109,69.347,6.328c26.366,6.328,46.492,17.534,60.381,33.618   c13.883,16.084,20.83,34.586,20.83,55.503c0,17.93-5.451,33.973-16.349,48.12C1656.516,335.999,1640.432,346.5,1619.165,353.356    M1481.001,339.118c6.501,1.231,13.931,2.154,22.28,2.768c8.347,0.618,17.534,0.923,27.554,0.923   c25.663,0,44.956-2.769,57.876-8.306s22.809-14.015,29.663-25.444c6.856-11.424,10.283-23.903,10.283-37.441   c0-20.917-8.528-38.76-25.576-53.526c-17.052-14.765-41.924-22.148-74.619-22.148c-17.579,0-33.398,1.936-47.461,5.801V339.118z    M1481.001,509.977c20.39,4.746,40.515,7.119,60.381,7.119c31.813,0,56.071-7.16,72.773-21.489   c16.699-14.324,25.049-32.035,25.049-53.13c0-13.884-3.782-27.245-11.338-40.078c-7.56-12.829-19.866-22.94-36.914-30.322   c-17.052-7.383-38.146-11.075-63.281-11.075c-10.9,0-20.216,0.177-27.948,0.528c-7.738,0.354-13.976,0.968-18.722,1.845V509.977z"></path>
	<path clip-path="url(#SVGID_2_)" fill="#193B66" d="M215.235,693.258l-29.424-64.07v50.875c0,4.68,0.506,7.6,1.516,8.759   c1.385,1.573,3.575,2.358,6.57,2.358h2.695v2.078h-26.503v-2.078h2.695c3.219,0,5.503-0.973,6.85-2.92   c0.823-1.197,1.236-3.93,1.236-8.197v-49.752c0-3.369-0.375-5.802-1.123-7.299c-0.525-1.086-1.489-1.994-2.892-2.724   c-1.404-0.73-3.66-1.095-6.766-1.095v-2.079h21.562l27.627,59.579l27.178-59.579h21.563v2.079h-2.639   c-3.257,0-5.56,0.974-6.907,2.919c-0.824,1.199-1.236,3.931-1.236,8.198v49.752c0,4.68,0.524,7.6,1.573,8.759   c1.384,1.573,3.574,2.358,6.57,2.358h2.639v2.078h-32.344v-2.078h2.695c3.257,0,5.54-0.973,6.851-2.92   c0.823-1.197,1.235-3.93,1.235-8.197v-50.875l-29.368,64.07H215.235z"></path>
	<path clip-path="url(#SVGID_2_)" fill="#193B66" d="M322.245,667.765h-29.481l-5.166,12.017c-1.273,2.958-1.909,5.166-1.909,6.626   c0,1.161,0.552,2.181,1.656,3.061c1.104,0.88,3.491,1.451,7.16,1.712v2.077h-23.978v-2.077c3.182-0.561,5.241-1.291,6.177-2.189   c1.909-1.797,4.024-5.447,6.345-10.949l26.786-62.666h1.965l26.504,63.339c2.135,5.092,4.07,8.396,5.812,9.911   c1.74,1.517,4.164,2.368,7.271,2.555v2.077h-30.04v-2.077c3.031-0.148,5.08-0.654,6.148-1.516c1.067-0.86,1.6-1.909,1.6-3.145   c0-1.646-0.75-4.248-2.246-7.806L322.245,667.765z M320.672,663.61l-12.916-30.771l-13.252,30.771H320.672z"></path>
	<path clip-path="url(#SVGID_2_)" fill="#193B66" d="M354.988,693.258v-2.078h2.864c3.219,0,5.503-1.029,6.85-3.088   c0.824-1.235,1.236-4.005,1.236-8.311v-49.189c0-4.754-0.525-7.73-1.573-8.928c-1.459-1.647-3.631-2.472-6.513-2.472h-2.864v-2.077   h30.997c11.38,0,20.037,1.291,25.97,3.875c5.933,2.582,10.706,6.888,14.32,12.914c3.612,6.028,5.419,12.991,5.419,20.889   c0,10.595-3.221,19.448-9.659,26.561c-7.225,7.937-18.231,11.904-33.017,11.904H354.988z M376.719,687.755   c4.755,1.049,8.741,1.572,11.961,1.572c8.685,0,15.892-3.052,21.619-9.153c5.728-6.101,8.592-14.375,8.592-24.818   c0-10.52-2.864-18.812-8.592-24.876c-5.727-6.064-13.084-9.097-22.068-9.097c-3.369,0-7.206,0.543-11.512,1.629V687.755z"></path>
	<path clip-path="url(#SVGID_2_)" fill="#193B66" d="M491.279,619.194v-2.078h26.954v2.078h-2.864c-2.995,0-5.298,1.254-6.907,3.762   c-0.786,1.161-1.179,3.856-1.179,8.086v30.883c0,7.638-0.758,13.562-2.275,17.773c-1.515,4.211-4.493,7.824-8.928,10.837   c-4.437,3.013-10.473,4.521-18.11,4.521c-8.31,0-14.619-1.441-18.923-4.324c-4.305-2.882-7.356-6.756-9.153-11.623   c-1.198-3.331-1.797-9.583-1.797-18.755v-29.761c0-4.679-0.645-7.749-1.937-9.209c-1.291-1.461-3.379-2.189-6.261-2.189h-2.864   v-2.078h32.906v2.078h-2.92c-3.144,0-5.39,0.992-6.738,2.976c-0.937,1.348-1.404,4.155-1.404,8.423v33.186   c0,2.958,0.271,6.346,0.814,10.164c0.542,3.818,1.524,6.795,2.947,8.928c1.423,2.135,3.473,3.895,6.15,5.279   c2.676,1.385,5.961,2.077,9.854,2.077c4.979,0,9.434-1.085,13.364-3.257c3.931-2.172,6.617-4.95,8.058-8.339   c1.441-3.388,2.163-9.124,2.163-17.21v-30.828c0-4.754-0.525-7.729-1.573-8.928c-1.46-1.647-3.632-2.471-6.514-2.471H491.279z"></path>
	<path clip-path="url(#SVGID_2_)" fill="#193B66" d="M597.528,693.258h-20.327l-25.774-35.601c-1.909,0.075-3.463,0.111-4.66,0.111   c-0.488,0-1.011-0.008-1.573-0.027c-0.561-0.019-1.142-0.046-1.74-0.084v22.124c0,4.792,0.523,7.769,1.572,8.928   c1.422,1.648,3.556,2.471,6.401,2.471h2.976v2.078h-32.625v-2.078h2.864c3.219,0,5.522-1.047,6.908-3.145   c0.785-1.159,1.178-3.911,1.178-8.254v-49.189c0-4.791-0.524-7.768-1.572-8.928c-1.46-1.648-3.632-2.471-6.514-2.471h-2.864v-2.078   h27.74c8.086,0,14.046,0.59,17.884,1.769c3.837,1.18,7.094,3.351,9.771,6.514c2.676,3.163,4.015,6.935,4.015,11.315   c0,4.679-1.526,8.741-4.577,12.185c-3.052,3.444-7.776,5.878-14.178,7.3l15.722,21.844c3.594,5.016,6.683,8.348,9.266,9.994   c2.583,1.647,5.952,2.695,10.107,3.145V693.258z M543.454,654.12c0.71,0,1.328,0.01,1.853,0.028   c0.523,0.02,0.954,0.028,1.292,0.028c7.261,0,12.736-1.573,16.423-4.717c3.687-3.145,5.532-7.15,5.532-12.017   c0-4.754-1.489-8.619-4.464-11.596c-2.977-2.976-6.917-4.464-11.821-4.464c-2.171,0-5.11,0.356-8.815,1.066V654.12z"></path>
	<path clip-path="url(#SVGID_2_)" fill="#193B66" d="M638.922,615.375c9.883,0,18.446,3.753,25.69,11.258   c7.243,7.506,10.865,16.874,10.865,28.104c0,11.567-3.65,21.169-10.949,28.806c-7.301,7.637-16.136,11.454-26.504,11.454   c-10.482,0-19.29-3.723-26.421-11.173c-7.132-7.449-10.697-17.089-10.697-28.918c0-12.092,4.117-21.956,12.353-29.593   C620.409,618.688,628.963,615.375,638.922,615.375 M637.854,619.474c-6.813,0-12.28,2.526-16.397,7.581   c-5.129,6.289-7.693,15.498-7.693,27.627c0,12.429,2.657,21.993,7.973,28.693c4.08,5.092,9.471,7.637,16.173,7.637   c7.15,0,13.055-2.788,17.716-8.367c4.661-5.577,6.991-14.375,6.991-26.391c0-13.027-2.565-22.742-7.693-29.144   C650.807,622.02,645.117,619.474,637.854,619.474"></path>
	<path clip-path="url(#SVGID_2_)" fill="#193B66" d="M763.434,644.237h23.584v2.078c-3.258,0.263-5.663,0.982-7.216,2.162   c-1.553,1.179-3.978,4.744-7.272,10.697c-3.294,5.951-7,11.511-11.117,16.677c3.331,3.894,6.306,6.617,8.927,8.17   c2.621,1.554,5.259,2.331,7.918,2.331c2.582,0,4.773-0.702,6.57-2.106c1.797-1.403,3.069-3.472,3.818-6.204l2.077,1.516   c-1.385,5.278-3.612,9.172-6.681,11.68c-3.071,2.508-6.646,3.762-10.725,3.762c-3.07,0-6.187-0.833-9.35-2.498   c-3.164-1.665-6.617-4.482-10.36-8.451c-4.644,4.118-8.826,6.973-12.551,8.563s-7.703,2.386-11.932,2.386   c-6.177,0-11.081-1.647-14.712-4.941c-3.632-3.293-5.448-7.224-5.448-11.791c0-4.529,1.629-9.05,4.886-13.562   c3.257-4.511,9.378-9.181,18.362-14.01c-1.76-3.894-2.958-7.084-3.593-9.574c-0.638-2.489-0.955-4.875-0.955-7.159   c0-6.401,2.358-11.287,7.075-14.656c3.668-2.619,7.842-3.93,12.522-3.93c4.455,0,8.087,1.319,10.894,3.958   c2.808,2.64,4.212,5.888,4.212,9.743c0,3.968-1.358,7.449-4.072,10.443c-2.714,2.996-7.515,6.271-14.403,9.827   c4.753,8.461,9.715,16.21,14.881,23.246c6.588-7.86,9.883-14.486,9.883-19.877c0-1.722-0.562-3.257-1.685-4.604   c-0.824-1.011-2.003-1.609-3.537-1.797V644.237z M750.687,680.792c-4.942-6.739-8.367-11.66-10.277-14.769   c-1.908-3.106-4.006-6.963-6.289-11.566c-4.493,2.582-7.87,5.428-10.135,8.535c-2.266,3.107-3.398,6.476-3.398,10.107   c0,4.006,1.292,7.523,3.874,10.557c2.584,3.031,6.065,4.548,10.446,4.548c2.357,0,4.632-0.468,6.822-1.403   C743.918,685.866,746.905,683.863,750.687,680.792 M741.981,645.698c4.642-2.209,8.114-4.717,10.418-7.525   c2.302-2.807,3.453-5.933,3.453-9.377c0-2.695-0.834-4.922-2.499-6.682c-1.666-1.76-3.735-2.64-6.206-2.64   c-3.256,0-5.719,1.133-7.384,3.397c-1.666,2.265-2.499,4.483-2.499,6.654c0,1.834,0.319,3.884,0.955,6.148   C738.855,637.94,740.109,641.281,741.981,645.698"></path>
	<path clip-path="url(#SVGID_2_)" fill="#193B66" d="M887.707,615.375l1.74,25.886h-1.74c-2.322-7.749-5.635-13.326-9.939-16.733   c-4.307-3.406-9.473-5.109-15.499-5.109c-5.054,0-9.622,1.282-13.702,3.846c-4.081,2.564-7.291,6.654-9.63,12.27   c-2.339,5.614-3.509,12.598-3.509,20.945c0,6.888,1.103,12.858,3.313,17.912c2.208,5.054,5.53,8.928,9.967,11.623   c4.436,2.695,9.498,4.043,15.189,4.043c4.942,0,9.302-1.057,13.084-3.172c3.781-2.114,7.936-6.317,12.466-12.606l1.74,1.123   c-3.818,6.776-8.273,11.735-13.363,14.88c-5.093,3.145-11.138,4.717-18.138,4.717c-12.617,0-22.387-4.679-29.312-14.037   c-5.166-6.963-7.749-15.162-7.749-24.596c0-7.599,1.703-14.58,5.11-20.944c3.406-6.363,8.094-11.295,14.066-14.796   c5.97-3.5,12.494-5.25,19.569-5.25c5.503,0,10.931,1.348,16.285,4.043c1.573,0.823,2.696,1.234,3.369,1.234   c1.011,0,1.89-0.354,2.64-1.066c0.973-1.011,1.665-2.414,2.077-4.211H887.707z"></path>
	<path clip-path="url(#SVGID_2_)" fill="#193B66" d="M950.381,619.194v-2.078h26.953v2.078h-2.864c-2.995,0-5.298,1.254-6.907,3.762   c-0.785,1.161-1.179,3.856-1.179,8.086v30.883c0,7.638-0.758,13.562-2.273,17.773c-1.517,4.211-4.493,7.824-8.929,10.837   c-4.437,3.013-10.473,4.521-18.109,4.521c-8.311,0-14.619-1.441-18.923-4.324c-4.305-2.882-7.356-6.756-9.153-11.623   c-1.198-3.331-1.797-9.583-1.797-18.755v-29.761c0-4.679-0.646-7.749-1.938-9.209c-1.291-1.461-3.379-2.189-6.261-2.189h-2.864   v-2.078h32.906v2.078h-2.92c-3.144,0-5.39,0.992-6.738,2.976c-0.937,1.348-1.404,4.155-1.404,8.423v33.186   c0,2.958,0.271,6.346,0.814,10.164c0.542,3.818,1.524,6.795,2.947,8.928c1.423,2.135,3.473,3.895,6.15,5.279   c2.676,1.385,5.961,2.077,9.854,2.077c4.979,0,9.434-1.085,13.364-3.257s6.616-4.95,8.058-8.339   c1.441-3.388,2.162-9.124,2.162-17.21v-30.828c0-4.754-0.524-7.729-1.572-8.928c-1.46-1.647-3.632-2.471-6.514-2.471H950.381z"></path>
	<path clip-path="url(#SVGID_2_)" fill="#193B66" d="M1056.63,693.258h-20.327l-25.774-35.601c-1.908,0.075-3.463,0.111-4.659,0.111   c-0.488,0-1.012-0.008-1.573-0.027c-0.562-0.019-1.143-0.046-1.74-0.084v22.124c0,4.792,0.523,7.769,1.572,8.928   c1.422,1.648,3.556,2.471,6.4,2.471h2.977v2.078h-32.626v-2.078h2.865c3.218,0,5.521-1.047,6.906-3.145   c0.785-1.159,1.179-3.911,1.179-8.254v-49.189c0-4.791-0.524-7.768-1.572-8.928c-1.46-1.648-3.632-2.471-6.513-2.471h-2.865v-2.078   h27.741c8.086,0,14.046,0.59,17.884,1.769c3.837,1.18,7.094,3.351,9.771,6.514s4.016,6.935,4.016,11.315   c0,4.679-1.526,8.741-4.577,12.185c-3.051,3.444-7.776,5.878-14.178,7.3l15.722,21.844c3.594,5.016,6.683,8.348,9.266,9.994   c2.583,1.647,5.952,2.695,10.107,3.145V693.258z M1002.556,654.12c0.71,0,1.328,0.01,1.854,0.028   c0.522,0.02,0.953,0.028,1.292,0.028c7.261,0,12.735-1.573,16.423-4.717c3.687-3.145,5.532-7.15,5.532-12.017   c0-4.754-1.489-8.619-4.465-11.596c-2.977-2.976-6.917-4.464-11.82-4.464c-2.171,0-5.11,0.356-8.815,1.066V654.12z"></path>
	<path clip-path="url(#SVGID_2_)" fill="#193B66" d="M1091.452,691.18v2.078h-32.625v-2.078h2.695c3.145,0,5.428-0.916,6.852-2.751   c0.898-1.197,1.349-4.08,1.349-8.647v-49.189c0-3.855-0.245-6.401-0.731-7.637c-0.375-0.936-1.143-1.74-2.303-2.414   c-1.647-0.898-3.369-1.348-5.166-1.348h-2.695v-2.078h32.625v2.078h-2.752c-3.106,0-5.372,0.917-6.794,2.751   c-0.936,1.198-1.403,4.081-1.403,8.647v49.189c0,3.856,0.242,6.401,0.729,7.637c0.374,0.937,1.16,1.74,2.359,2.414   c1.608,0.898,3.312,1.348,5.108,1.348H1091.452z"></path>
	<path clip-path="url(#SVGID_2_)" fill="#193B66" d="M1122.088,621.271v30.098h16.734c4.342,0,7.244-0.654,8.704-1.966   c1.945-1.721,3.032-4.753,3.256-9.096h2.078v26.504h-2.078c-0.524-3.707-1.048-6.083-1.572-7.132   c-0.674-1.31-1.778-2.339-3.312-3.089c-1.536-0.748-3.895-1.123-7.076-1.123h-16.734v25.101c0,3.369,0.149,5.419,0.45,6.148   c0.299,0.73,0.823,1.312,1.572,1.741c0.749,0.431,2.171,0.646,4.268,0.646h12.915c4.305,0,7.432-0.299,9.378-0.898   c1.945-0.599,3.818-1.777,5.615-3.538c2.321-2.32,4.698-5.82,7.131-10.5h2.246l-6.57,19.092h-58.68v-2.078h2.696   c1.796,0,3.5-0.431,5.109-1.291c1.197-0.599,2.013-1.497,2.442-2.695c0.43-1.197,0.646-3.651,0.646-7.355v-49.471   c0-4.829-0.487-7.805-1.46-8.928c-1.348-1.497-3.594-2.246-6.737-2.246h-2.696v-2.078h58.68l0.843,16.677h-2.19   c-0.785-4.005-1.656-6.756-2.61-8.254c-0.955-1.497-2.367-2.64-4.238-3.425c-1.498-0.563-4.139-0.843-7.918-0.843H1122.088z"></path>
	<path clip-path="url(#SVGID_2_)" fill="#193B66" d="M1234.57,672.202l1.854,0.393l-6.515,20.664h-58.959v-2.078h2.863   c3.219,0,5.522-1.047,6.906-3.145c0.788-1.197,1.18-3.967,1.18-8.311v-49.133c0-4.754-0.524-7.729-1.572-8.928   c-1.46-1.648-3.632-2.471-6.514-2.471h-2.863v-2.078h34.477v2.078c-4.043-0.037-6.877,0.336-8.506,1.123   c-1.628,0.785-2.743,1.778-3.342,2.976c-0.6,1.198-0.898,4.063-0.898,8.591v47.842c0,3.108,0.299,5.242,0.898,6.402   c0.449,0.785,1.142,1.366,2.078,1.74c0.935,0.375,3.854,0.562,8.761,0.562h5.558c5.84,0,9.94-0.43,12.297-1.292   c2.36-0.86,4.511-2.386,6.458-4.576C1230.677,680.372,1232.623,676.918,1234.57,672.202"></path>
	<path clip-path="url(#SVGID_2_)" fill="#193B66" d="M1240.873,644.461v-2.639c3.855-2.283,6.478-4.417,7.862-6.401   c0.973-1.422,1.46-3.125,1.46-5.11c0-1.16-0.206-2.021-0.617-2.582c-0.449-0.563-0.936-0.843-1.461-0.843   c-0.412,0-0.954,0.132-1.629,0.394c-0.973,0.336-1.778,0.505-2.415,0.505c-1.497,0-2.826-0.562-3.986-1.685   c-1.161-1.123-1.739-2.527-1.739-4.211c0-1.872,0.578-3.332,1.739-4.381c1.572-1.422,3.443-2.133,5.615-2.133   c2.509,0,4.765,1.058,6.769,3.172c2.002,2.115,3.004,4.745,3.004,7.89c0,4.418-1.666,8.442-4.997,12.073   C1248.268,640.906,1245.065,642.889,1240.873,644.461"></path>
	<path clip-path="url(#SVGID_2_)" fill="#193B66" d="M1318.878,615.375v26.335h-2.077c-0.674-5.054-1.881-9.077-3.622-12.073   c-1.739-2.994-4.221-5.371-7.439-7.131c-3.22-1.759-6.551-2.639-9.996-2.639c-3.894,0-7.112,1.188-9.658,3.565   c-2.546,2.378-3.817,5.081-3.817,8.114c0,2.321,0.804,4.435,2.414,6.345c2.32,2.808,7.843,6.552,16.565,11.23   c7.111,3.817,11.969,6.748,14.571,8.788c2.602,2.041,4.604,4.444,6.008,7.215c1.405,2.771,2.107,5.672,2.107,8.704   c0,5.766-2.239,10.733-6.711,14.908c-4.475,4.175-10.23,6.261-17.268,6.261c-2.209,0-4.287-0.168-6.232-0.505   c-1.16-0.188-3.566-0.87-7.216-2.05c-3.649-1.179-5.962-1.769-6.936-1.769c-0.936,0-1.675,0.28-2.217,0.843   c-0.543,0.561-0.946,1.722-1.207,3.48h-2.078v-26.11h2.078c0.972,5.466,2.282,9.556,3.93,12.27c1.647,2.715,4.164,4.97,7.553,6.767   c3.388,1.797,7.104,2.695,11.146,2.695c4.679,0,8.375-1.236,11.09-3.707c2.714-2.471,4.071-5.392,4.071-8.76   c0-1.871-0.516-3.762-1.545-5.672c-1.03-1.908-2.63-3.686-4.801-5.335c-1.46-1.123-5.445-3.508-11.96-7.158   c-6.514-3.649-11.146-6.56-13.898-8.731c-2.751-2.171-4.838-4.567-6.261-7.188s-2.134-5.504-2.134-8.647   c0-5.465,2.097-10.172,6.289-14.122c4.192-3.949,9.526-5.924,16.004-5.924c4.043,0,8.328,0.992,12.858,2.976   c2.096,0.937,3.575,1.403,4.437,1.403c0.973,0,1.769-0.289,2.387-0.87c0.618-0.58,1.112-1.749,1.487-3.509H1318.878z"></path>
	<path clip-path="url(#SVGID_2_)" fill="#193B66" d="M1412.67,654.401c5.278,1.123,9.228,2.919,11.849,5.391   c3.63,3.443,5.446,7.656,5.446,12.635c0,3.781-1.197,7.403-3.594,10.865c-2.396,3.463-5.681,5.989-9.854,7.58   c-4.176,1.592-10.549,2.387-19.121,2.387h-35.938v-2.078h2.864c3.181,0,5.465-1.01,6.851-3.031c0.861-1.311,1.292-4.1,1.292-8.367   v-49.189c0-4.717-0.543-7.693-1.628-8.928c-1.462-1.647-3.633-2.472-6.515-2.472h-2.864v-2.077h32.906   c6.139,0,11.063,0.449,14.769,1.348c5.614,1.348,9.9,3.734,12.858,7.159c2.957,3.426,4.437,7.366,4.437,11.819   c0,3.819-1.16,7.236-3.481,10.249C1420.624,650.705,1417.199,652.941,1412.67,654.401 M1383.246,651.369   c1.385,0.263,2.967,0.459,4.745,0.59c1.777,0.132,3.734,0.196,5.867,0.196c5.466,0,9.575-0.59,12.326-1.769   c2.751-1.18,4.857-2.985,6.316-5.419c1.461-2.433,2.19-5.091,2.19-7.974c0-4.454-1.816-8.255-5.446-11.399   c-3.632-3.145-8.929-4.717-15.892-4.717c-3.744,0-7.113,0.413-10.107,1.236V651.369z M1383.246,687.755   c4.342,1.011,8.628,1.517,12.858,1.517c6.775,0,11.941-1.525,15.498-4.578c3.557-3.05,5.335-6.821,5.335-11.313   c0-2.957-0.805-5.802-2.415-8.535c-1.609-2.733-4.23-4.886-7.861-6.458s-8.123-2.357-13.477-2.357   c-2.321,0-4.305,0.037-5.951,0.111c-1.648,0.076-2.976,0.207-3.987,0.394V687.755z"></path>
	<path clip-path="url(#SVGID_2_)" fill="#193B66" d="M1486.568,667.765h-29.48l-5.166,12.017c-1.273,2.958-1.908,5.166-1.908,6.626   c0,1.161,0.551,2.181,1.655,3.061c1.104,0.88,3.49,1.451,7.159,1.712v2.077h-23.977v-2.077c3.182-0.561,5.24-1.291,6.177-2.189   c1.909-1.797,4.024-5.447,6.345-10.949l26.785-62.666h1.965l26.505,63.339c2.136,5.092,4.071,8.396,5.813,9.911   c1.741,1.517,4.164,2.368,7.271,2.555v2.077h-30.042v-2.077c3.031-0.148,5.081-0.654,6.148-1.516c1.066-0.86,1.6-1.909,1.6-3.145   c0-1.646-0.749-4.248-2.246-7.806L1486.568,667.765z M1484.996,663.61l-12.916-30.771l-13.252,30.771H1484.996z"></path>
	<path clip-path="url(#SVGID_2_)" fill="#193B66" d="M1515.833,617.116h20.664l46.55,57.106v-43.911c0-4.679-0.524-7.599-1.571-8.76   c-1.387-1.572-3.576-2.357-6.57-2.357h-2.639v-2.078h26.504v2.078h-2.696c-3.22,0-5.503,0.974-6.85,2.92   c-0.825,1.198-1.236,3.93-1.236,8.197v64.183h-2.021l-50.199-61.318v46.888c0,4.68,0.505,7.6,1.515,8.76   c1.423,1.572,3.613,2.356,6.571,2.356h2.694v2.079h-26.504v-2.079h2.64c3.257,0,5.559-0.972,6.906-2.919   c0.823-1.197,1.235-3.93,1.235-8.197v-52.952c-2.209-2.583-3.884-4.286-5.025-5.11c-1.143-0.823-2.817-1.59-5.025-2.302   c-1.087-0.337-2.733-0.505-4.941-0.505V617.116z"></path>
	<path clip-path="url(#SVGID_2_)" fill="#193B66" d="M1638.56,651.032l28.076,27.908c4.604,4.604,8.535,7.74,11.792,9.404   c3.257,1.666,6.514,2.611,9.771,2.836v2.078h-36.22v-2.078c2.171,0,3.734-0.364,4.689-1.095c0.954-0.729,1.432-1.544,1.432-2.442   s-0.178-1.703-0.533-2.414c-0.356-0.711-1.526-2.04-3.51-3.987l-26.278-25.999v24.539c0,3.855,0.242,6.401,0.729,7.637   c0.373,0.937,1.159,1.74,2.358,2.414c1.608,0.898,3.313,1.348,5.109,1.348h2.583v2.078h-32.457v-2.078h2.695   c3.145,0,5.428-0.916,6.851-2.752c0.898-1.196,1.349-4.079,1.349-8.646v-49.189c0-3.855-0.245-6.42-0.731-7.693   c-0.374-0.898-1.142-1.684-2.302-2.357c-1.647-0.898-3.369-1.348-5.166-1.348h-2.695v-2.078h32.457v2.078h-2.583   c-1.76,0-3.463,0.431-5.109,1.291c-1.161,0.6-1.966,1.498-2.414,2.695c-0.45,1.198-0.674,3.669-0.674,7.412v23.303   c0.747-0.71,3.312-3.088,7.692-7.131c11.117-10.182,17.837-16.977,20.158-20.383c1.011-1.497,1.516-2.809,1.516-3.932   c0-0.86-0.393-1.618-1.179-2.273c-0.786-0.654-2.115-0.982-3.987-0.982h-1.739v-2.078h27.964v2.078   c-1.648,0.037-3.146,0.262-4.493,0.674s-2.995,1.207-4.941,2.386c-1.947,1.18-4.343,3.08-7.188,5.7   c-0.824,0.749-4.624,4.586-11.399,11.511L1638.56,651.032z"></path>
	<path clip-path="url(#SVGID_2_)" fill="#193B66" d="M170.079,170.079v340.158c0,18.708,15.307,34.015,34.016,34.015h106.611   c0.08-0.001,0.16-0.001,0.24-0.001c6.247,0,11.428,3.126,14.65,8.796c0.027,0.047,0.056,0.093,0.081,0.141l14.481,25.081   l14.481-25.082c0.025-0.046,0.054-0.092,0.079-0.139c2.898-5.242,8.478-8.796,14.892-8.796h106.611   c18.708,0,34.015-15.307,34.015-34.015V170.079H170.079z"></path>
	<path clip-path="url(#SVGID_2_)" fill="#FFFFFF" d="M222.935,319.175l-0.002,0.004c0,0,4.122,2.71,9.11,6.558   c4.126-4.418-1.288-8.997-1.288-8.997s0.905-0.936,3.362-3.899c2.455-2.963,4.613-7.683,4.613-7.683   c-1.958-1.715-2.881-2.56-4.984-4.49c-0.138-0.148-0.285-0.285-0.446-0.411c-0.291-0.228-0.621-0.418-0.981-0.561   c-2.025-0.8-4.313,0.192-5.113,2.215c-0.428,1.083-5.237,11.333-5.797,12.748C220.737,316.361,221.418,318.26,222.935,319.175"></path>
	<path clip-path="url(#SVGID_2_)" fill="#FFFFFF" d="M387.337,232.702c2.781,0.896,5.762-0.631,6.659-3.413   c0.896-2.781-0.632-5.762-3.413-6.659c-2.781-0.897-5.763,0.632-6.659,3.413C383.028,228.824,384.557,231.806,387.337,232.702"></path>
	<path clip-path="url(#SVGID_2_)" fill="#FFFFFF" d="M390.912,244.363c1.976,0.072,5.23,0.568,6.472,2.951   c1.512,2.902-4.283,9.217-9.265,12.905l6.534,2.106c1.087-0.96,2.296-2.104,3.455-3.37c5.015-5.474,6.494-10.289,4.399-14.31   c-2.197-4.218-6.53-5.557-9.772-5.94L390.912,244.363z"></path>
	<path clip-path="url(#SVGID_2_)" fill="#FFFFFF" d="M400.656,264.26l6.535,2.106c1.086-0.959,2.295-2.104,3.455-3.37   c5.014-5.473,6.494-10.288,4.399-14.31c-0.433-0.83-0.951-1.545-1.524-2.167l-5.261-1.695l-1.345,4.175   c1.234,0.429,2.377,1.15,3.006,2.357C411.433,254.257,405.638,260.572,400.656,264.26"></path>
	<path clip-path="url(#SVGID_2_)" fill="#FFFFFF" d="M363.264,247.723c0.201,1.705,0.514,3.34,0.837,4.754l6.534,2.106   c-1.892-5.903-2.907-14.413,0.015-15.886c2.399-1.209,5.33,0.288,6.976,1.383l1.822-5.657c-2.852-1.582-7.152-3.026-11.398-0.885   C363.998,235.579,362.389,240.352,363.264,247.723"></path>
	<path clip-path="url(#SVGID_2_)" fill="#FFFFFF" d="M351.562,248.436l6.535,2.106c-1.891-5.903-2.908-14.413,0.014-15.886   c1.215-0.612,2.567-0.529,3.818-0.157l1.345-4.175l-5.259-1.696c-0.83,0.17-1.666,0.448-2.503,0.87   c-4.049,2.04-5.66,6.813-4.787,14.184C350.928,245.386,351.24,247.022,351.562,248.436"></path>
	
		<rect x="371.788" y="244.085" transform="matrix(-0.3068 0.9518 -0.9518 -0.3068 735.2398 -41.5052)" clip-path="url(#SVGID_2_)" fill="#FFFFFF" width="21.892" height="5.796"></rect>
	<path clip-path="url(#SVGID_2_)" fill="#FFFFFF" d="M349.585,429.641c-14.807-9.697-25.579-26.493-25.579-26.493   c-44.854,27.324-34.979,65.373-34.979,65.373c0.482,8.299,14.684,3.396,7.68,17.238c-3.007,5.939-20.181,5.719-31.157,9.066   c-5.755,1.757-6.694,8.776-4.281,11.992c1.209,1.615,2.775,3.4,6.996,3.4c-0.237-0.458-1.041-4.285,3.176-6.979   c0.091,0.065-1.515,4.297,0.839,6.979h47.868c12.55,0,7.195-16.582,4.104-17.442c-2.88-0.802-5.71-3.555-5.867-9.254   c-0.639-23.17,13.493-40.381,31.828-42.773c1.446-0.188,3.142-0.418,3.335-1.155c1.068-4.104-0.653-6.676-2.763-8.912   L349.585,429.641z"></path>
	<path clip-path="url(#SVGID_2_)" fill="#FFFFFF" d="M454.317,315.437c0.739,2.679-2.043,11.708-11.173,7.352   c-11.614-5.538-20.609,3.477-20.609,12.005c-9.667,0.075-19.8,9.903-8.393,43.132c15.259,44.451-9.525,42.499-12.428,41.527   c-1.643-14.035-4.617-18.318-12.697-26.568c-7.431-7.588-18.086-15.92-7.316-29.904c-1.172,3.647-1.4,10.552,9.024,16.702   c-4.322-12.937,7.833-15.058-2.467-33.036c5.386,0,8.737,4.346,8.049,9.252c9.399-11.676,5.891-24.493,1.207-30.534   c6.686-1.894,10.074,0.9,12.405,2.835c5.439-11.856-2.223-20.882-7.457-23.792c4.208-3.679,9.823-2.482,11.819,1.576   c3.123-12.692-7.956-17.943-12.595-17.943c2.03-1.074,3.697-2.705,4.768-4.72c1.431-2.697,1.655-5.851,0.611-8.652   c-1.563-4.193-5.569-6.902-10.21-6.902c-1.172,0-2.329,0.187-3.452,0.536l-43.637-13.998c-4.181,0.872-2.842,5.104-1.801,5.519   c-13.422,3.46-29.393,7.314-34.706,8.545c-5.607,1.301-5.642,6.082-4.692,8.053c0,0,1.841-1.607,3.738,0.381   c0,0-4.243,2.108-4.243,7.417c0,1.142,0.849,10.667,12.175,8.221c6.302-1.36,10.432-2.333,13.557-1.245   c7.606,2.649,7.425,18.804-10.425,14.195c-12.696-3.278-18.436,3.162-16.35,14.829c4.731-5.844,10.75-8.416,34.411-1.465   c-0.912,2.111-0.731,1.91-1.272,3.64c-31.751-7.25-25.389,9.659-75.388,0.062c-1.251-4.778-4.053-10.375-7.644-11.019   c-7.973-1.431-14.259-5.498-15.529-3.043c-2.881,5.567-5.251,8.291-5.251,8.291c5.207,5.843,8.041-0.483,8.461-0.279   c1.141,0.553,2.22,1.107,2.22,1.107c-1.265,6.447-8.894,11.772-8.894,11.772c3.578,3.578,11.788,8.269,16.203,8.229   c4.415-0.039,6.25-1.62,6.25-1.62l46.183,19.855l5.034-7.23c-1.034,12.118,0.188,16.176,2.912,25.344l-36.567,14.357   c0,0-1.229-0.832-3.073-2.081l13.917-9.75c0.742,1.276,1.4,2.578,1.958,3.912l8.562-14.685l-15.378,2.79l2.24-15.466l-13.212,8.345   l-3.716-15.18l-9.123,12.688l-9.132-12.682l-3.707,15.182l-13.217-8.338l2.251,15.467l-15.38-2.781l8.572,14.679   c0.556-1.331,1.213-2.637,1.954-3.912l9.808,6.86c-0.445,0.554-0.72,1.245-0.695,2.129c0.166,5.946,0.864,9.192,2.475,15.132   c0.087,0.313,0.204,0.597,0.338,0.866l-21.494,15.062c0.476,0.792,0.971,1.577,1.509,2.345c0.538,0.768,1.107,1.501,1.689,2.217   l23.631-16.556c0.194,0.053,0.389,0.106,0.588,0.161l-15.87,24.453c0.737,0.555,1.489,1.099,2.276,1.61   c0.788,0.51,1.589,0.978,2.398,1.424l16.551-25.504l-5.791,29.845c0.891,0.242,1.793,0.461,2.714,0.64   c0.921,0.18,1.839,0.311,2.756,0.422l5.792-29.844l5.811,29.84c0.916-0.11,1.835-0.245,2.757-0.424   c0.919-0.178,1.821-0.4,2.712-0.64l-5.544-28.472c0.202-0.002,0.407-0.008,0.613-0.016l15.687,24.137   c0.808-0.446,1.61-0.913,2.397-1.424c0.787-0.51,1.54-1.054,2.276-1.612l-14.25-21.927c0.753-0.154,1.464-0.313,2.11-0.468   l20.483,14.334c0.582-0.717,1.152-1.452,1.688-2.219c0.538-0.77,1.032-1.556,1.507-2.347l-16.512-11.555l58.116-13.736   l-11.38,8.589c7.487,11.602,19.565,22.118,24.043,25.437c7.289,5.404,6.629,11.792,5.568,17.353   c-4.255,22.316,13.934,29.113,23.5,28.276c2.887-0.251,8.474,3.282,8.474,9.279c0,13.422-11.251,11.275-22.544,14.738   c-5.76,1.767-6.697,8.787-4.285,12.003c2.922,3.897,6.995,3.398,6.995,3.398c-0.237-0.456-0.819-4.379,3.176-6.973   c0.092,0.062-1.516,4.294,0.84,6.973h21.15c0.394-0.098,11.619-2.846,10.935-12.565c-0.523-7.402-1.069-13.969,4.617-19.656   c8.497-8.495,2.63-16.483,2.63-16.483c-6.996-1.31-20.248-10.601-12.352-27.321c31.704-2.647,28.979-32.69,24.19-47.722   c-3.564-11.186-9.076-26.511-8.996-33.46c0.185-16.15,23.152-14.432,23.719-0.193c9.121-2.545,7.895-13.874,2.595-16.442   C459.918,340.488,463.338,321.33,454.317,315.437 M340.569,272.353c3.086-1.036,10.201-6.158,10.201-6.158   c6.258,1.648,10.547,10.695,10.547,10.695C356.89,274.322,348.431,271.374,340.569,272.353 M283.355,369.211   c0.848,0.825,1.668,1.689,2.44,2.614l-15.321,10.734l10.184-15.693C281.608,367.605,282.502,368.393,283.355,369.211    M269.362,361.163c1.159,0.328,2.282,0.722,3.379,1.164c1.096,0.444,2.18,0.939,3.242,1.506L265.8,379.525L269.362,361.163z    M260.323,359.916c1.182,0.004,2.372,0.057,3.569,0.184l-3.563,18.366l-3.575-18.364   C257.951,359.975,259.14,359.919,260.323,359.916 M247.904,362.334c1.098-0.442,2.221-0.838,3.38-1.166l3.525,18.108   c-0.036,0.003-0.071,0.009-0.107,0.013l-10.037-15.447C245.726,363.275,246.809,362.781,247.904,362.334 M237.296,369.228   c0.854-0.819,1.746-1.608,2.696-2.347l8.731,13.434c-0.453,0.101-0.895,0.203-1.318,0.307l-12.546-8.78   C235.63,370.917,236.45,370.053,237.296,369.228"></path>
	<path clip-path="url(#SVGID_2_)" fill="#FFFFFF" d="M246.698,302.65c6.727,3.28,13.754,5.234,20.788,5.965l0.547-7.856   c-6.133-0.672-12.169-2.407-17.88-5.192c-5.711-2.786-10.795-6.475-15.101-10.894l-5.854,5.267   C234.104,295.035,239.972,299.371,246.698,302.65"></path>
	<path clip-path="url(#SVGID_2_)" fill="#FFFFFF" d="M272.176,250.411l-17.316,40.81c1.569,0.676,3.156,1.261,4.756,1.76   l36.011-79.416l1.903-15.139l-10.757,10.821l-40.41,77.269c1.378,0.954,2.816,1.844,4.316,2.665L272.176,250.411z"></path>
	<path clip-path="url(#SVGID_2_)" fill="#FFFFFF" d="M312.255,301.7c3.502-0.86,6.931-1.54,12.002-0.302   c5.423,1.324,8.079,0.683,9.571-0.716c1.514-1.417,1.162-4.668-1.061-5.78c-2.945-1.472-10.262,1.572-16.012,1.838   c-7.43,0.341-19.973,0.248-21.142-20.405C282.879,293.49,294.41,306.085,312.255,301.7"></path>
</g>
</svg>
